<svg xmlns="http://www.w3.org/2000/svg" viewBox="0 0 512 512" role="img" aria-labelledby="title desc">
  <title id="title">End Zone Revenge icon</title>
  <desc id="desc">A crimson football app icon with gold trim and EZR lettering.</desc>
  <defs>
    <linearGradient id="bg" x1="0%" y1="0%" x2="100%" y2="100%">
      <stop offset="0%" stop-color="#9d2438"/>
      <stop offset="100%" stop-color="#5d1322"/>
    </linearGradient>
    <linearGradient id="glow" x1="0%" y1="0%" x2="0%" y2="100%">
      <stop offset="0%" stop-color="#f6d98f"/>
      <stop offset="100%" stop-color="#d6a846"/>
    </linearGradient>
  </defs>
  <rect width="512" height="512" rx="112" fill="url(#bg)"/>
  <circle cx="256" cy="256" r="184" fill="none" stroke="rgba(255,248,234,0.16)" stroke-width="18"/>
  <path d="M102 390c36-60 94-92 154-92h154v82H102z" fill="#f36c21" opacity="0.96"/>
  <path d="M120 364h272" stroke="#fff4e8" stroke-opacity="0.55" stroke-width="10" stroke-linecap="round"/>
  <path d="M256 128c82 0 144 48 144 114 0 58-50 108-121 119-16 3-30 13-39 27l-22 35-24-40c-9-15-25-25-42-28-58-10-104-53-104-113 0-66 62-114 208-114z" fill="#3f2412"/>
  <path d="M256 151c69 0 119 37 119 90 0 48-43 82-111 91-25 4-48 19-62 41l-7 10-7-12c-16-26-43-41-74-45-50-7-91-40-91-85 0-53 50-90 119-90z" fill="#7a4d1b"/>
  <path d="M189 238c20-12 45-18 67-18 22 0 47 6 67 18" fill="none" stroke="#f3ddbd" stroke-width="8" stroke-linecap="round"/>
  <path d="M256 195v87" stroke="#f3ddbd" stroke-width="10" stroke-linecap="round"/>
  <path d="M227 214v46M241 208v59M271 208v59M285 214v46" stroke="#f3ddbd" stroke-width="6" stroke-linecap="round"/>
  <text x="256" y="448" text-anchor="middle" font-family="Bebas Neue, Impact, sans-serif" font-size="112" letter-spacing="8" fill="url(#glow)">EZR</text>
</svg>
